<?xml version="1.0" encoding="utf-8"?><svg width="226" height="278" viewBox="0 0 226 278" xmlns="http://www.w3.org/2000/svg" xmlns:xlink="http://www.w3.org/1999/xlink"><svg width="226" height="278" fill="none" viewBox="-1 -1 226 278" id="figure-3" xmlns="http://www.w3.org/2000/svg"><path d="M102.659 272.779c-10.263-4.189-15.187-15.912-10.998-26.176l71.161-174.272 37.165 15.17-71.152 174.279c-4.189 10.264-15.912 15.188-26.176 10.999Z" fill="#E05327"/><path d="M154.978 169.047c-6.22-2.904-6.499-10.994-12.117-14.803-3.526-2.383-8.534-2.502-12.251.489l-37.109 90.885c-4.19 10.264.183 21.753 9.77 25.669 9.587 3.916 20.752-1.232 24.941-11.496l37.11-90.885c-3.438 1.05-7.199 1.602-10.344.141Zm47.539-87.744 19.849-48.628a2.752 2.752 0 0 0-.087-2.247l1.033-2.527a2.047 2.047 0 0 0-1.131-2.676l-31.642-12.913a2.047 2.047 0 0 0-2.677 1.13l-1.032 2.528a2.723 2.723 0 0 0-1.635 1.544l-19.848 48.628a3.158 3.158 0 0 0-3.035 1.96l-.594 1.447a3.155 3.155 0 0 0 1.73 4.111l35.169 14.36a3.154 3.154 0 0 0 4.111-1.73l.594-1.448a3.17 3.17 0 0 0-.805-3.54Z" fill="#74123B"/><path d="M51.828 17.78a6.093 6.093 0 0 1 7.733 0l6.01 4.935a6.093 6.093 0 0 0 4.227 1.374l7.761-.46a6.093 6.093 0 0 1 6.257 4.545l1.96 7.524a6.093 6.093 0 0 0 2.613 3.596l6.55 4.19a6.093 6.093 0 0 1 2.39 7.354l-2.837 7.24a6.092 6.092 0 0 0 0 4.445l2.836 7.24a6.093 6.093 0 0 1-2.39 7.354l-6.55 4.19a6.093 6.093 0 0 0-2.612 3.596l-1.96 7.524a6.093 6.093 0 0 1-6.257 4.545l-7.761-.46a6.093 6.093 0 0 0-4.228 1.374l-6.008 4.934a6.092 6.092 0 0 1-7.734 0l-6.009-4.934a6.093 6.093 0 0 0-4.227-1.374l-7.761.46a6.093 6.093 0 0 1-6.257-4.545l-1.96-7.524A6.092 6.092 0 0 0 23 81.307l-6.55-4.19a6.093 6.093 0 0 1-2.39-7.355l2.837-7.24a6.092 6.092 0 0 0 0-4.444l-2.837-7.24a6.093 6.093 0 0 1 2.39-7.354l6.55-4.19a6.092 6.092 0 0 0 2.612-3.596l1.961-7.524a6.093 6.093 0 0 1 6.257-4.546l7.761.46a6.093 6.093 0 0 0 4.227-1.373l6.01-4.934Z" fill="#E05327"/><path fill="#E05327" d="M53.867 8.516h3.656v14.622h-3.656z"/><circle cx="55.694" cy="6.077" r="4.874" fill="#74123B"/><path fill="#E05327" d="M57.519 112.09h-3.656V97.468h3.656z"/><circle cx="55.692" cy="114.526" r="4.874" transform="rotate(180 55.692 114.526)" fill="#74123B"/><path fill="#E05327" d="M8.777 62.13v-3.657H23.4v3.656z"/><circle cx="6.343" cy="60.304" r="4.874" transform="rotate(-90 6.343 60.304)" fill="#74123B"/><path fill="#E05327" d="M102.609 58.475v3.656H87.987v-3.656z"/><circle cx="105.044" cy="60.302" r="4.874" transform="rotate(90 105.044 60.302)" fill="#74123B"/><path fill="#E05327" d="m20.223 27.41 2.585-2.585 10.34 10.339-2.586 2.585z"/><circle cx="19.788" cy="24.395" r="4.874" transform="rotate(-45 19.788 24.395)" fill="#74123B"/><path fill="#E05327" d="m91.168 93.192-2.585 2.585-10.34-10.34 2.586-2.585z"/><circle cx="91.603" cy="96.205" r="4.874" transform="rotate(135 91.603 96.205)" fill="#74123B"/><path fill="#E05327" d="m22.59 93.549-2.585-2.586 10.339-10.339 2.585 2.585z"/><circle cx="19.578" cy="93.982" r="4.874" transform="rotate(-135 19.578 93.982)" fill="#74123B"/><path fill="#E05327" d="m88.793 25.836 2.585 2.585-10.34 10.34-2.584-2.586z"/><circle cx="91.809" cy="25.403" r="4.874" transform="rotate(45 91.809 25.403)" fill="#74123B"/></svg></svg>